<svg xmlns="http://www.w3.org/2000/svg" viewBox="0 0 89.91175 28.41071"><defs><style>.cls-1{fill:currentColor;}</style></defs><g id="Layer_2" data-name="Layer 2"><g id="Layer_4" data-name="Layer 4"><path class="cls-1" d="M29.7055,22.26977a13.59938,13.59938,0,0,0-3.80944-2.07334V15.546h1.25045a1.43956,1.43956,0,0,1,1.50985,1.13391c.10592-.9859,1.93057-1.86249,2.677-1.86249-.74645,0-2.5711-.87662-2.677-1.86253a1.43956,1.43956,0,0,1-1.50985,1.13392H25.89606V9.81717a5.43221,5.43221,0,0,1,.401-2.13641A9.96882,9.96882,0,0,0,29.84084,9.513a5.59985,5.59985,0,0,1,.02706,1.46576,27.57319,27.57319,0,0,1,2.93932-4.41735c-1.65286,1.49465-4.10092-.179-4.8878-1.30312-.57454.84933-3.89063,3.86568-5.57054,4.14671.79935.36222.89926.73691.89926,1.224v8.94289c0,1.34849,0,1.34849-.89926,2.27319,1.4426-.37469,5.28329,2.11705,5.608,3.23494.37469-.83685,4.2029-3.61589,4.58385-5.09595A12.531,12.531,0,0,1,29.7055,22.26977Z"/><path class="cls-1" d="M64.56615,9.21679a1.79077,1.79077,0,0,0-.55148,1.49968V24.73032c-2.2014-3.44725-5.83182-3.55967-4.52213-5.92587-1.20415,1.21052-2.08407,2.029-3.42786,3.2868,1.70218-.11756,5.56543,3.67575,5.7278,5.93645.57454-.84933,4.08945-5.531,5.76937-5.812-.79935-.36221-.89927-.7369-.89927-1.224V10.21687c0-1.34849-.03228-1.56542,1.59975-3.28072C65.49578,8.512,60.40608,6.23879,60.18126,5.071c-.37469.83684-2.62128,2.50383-3.70955,4.07176C59.45267,6.36993,60.4269,10.40839,64.56615,9.21679Z"/><path class="cls-1" d="M53.03694,22.26977a13.59958,13.59958,0,0,0-3.80945-2.07334V15.546h1.25045a1.43956,1.43956,0,0,1,1.50985,1.13391c.10593-.9859,1.93058-1.86249,2.677-1.86249-.74644,0-2.57109-.87662-2.677-1.86253a1.43956,1.43956,0,0,1-1.50985,1.13392H49.22749V9.81717a5.43239,5.43239,0,0,1,.40095-2.13641A9.96891,9.96891,0,0,0,53.17227,9.513a5.59941,5.59941,0,0,1,.02706,1.46576,27.57456,27.57456,0,0,1,2.93932-4.41735c-1.65286,1.49465-4.10092-.179-4.88779-1.30312-.57455.84933-3.89063,3.86568-5.57055,4.14671.79935.36222.89926.73691.89926,1.224v8.94289c0,1.34849,0,1.34849-.89926,2.27319,1.4426-.37469,5.28329,2.11705,5.608,3.23494.37469-.83685,4.20291-3.61589,4.58385-5.09595A12.53091,12.53091,0,0,1,53.03694,22.26977Z"/><path class="cls-1" d="M73.86873,9.89838V20.61843c0,.43154-.09907,1.31777,1.16267,1.50985-1.28013.10592-2.41838,1.93057-2.41838,2.677,0-.74645-1.13819-2.5711-2.41832-2.677,1.26173-.19208,1.16266-1.07831,1.16266-1.50985V10.75811c0-.96061-.77276-2.16906-1.86476-1.89016a31.54406,31.54406,0,0,0,2.56046-2.65414,3.82557,3.82557,0,0,0,.84087,1.05157,3.16539,3.16539,0,0,0,1.807,1.11545A2.00819,2.00819,0,0,0,73.86873,9.89838Z"/><path class="cls-1" d="M88.433,22.03518a2.18877,2.18877,0,0,1-1.44975-1.82627V9.89838a2.00819,2.00819,0,0,1,.83221-1.51756c-1.90472-.03121-4.6088-2.23573-4.78159-2.96012A32.30917,32.30917,0,0,1,80.1841,7.8c-2.47077,2.21382-2.142,3.43479-1.30523,4.27786C77.51745,9.87339,80.5638,8.30375,81.009,8.04916a9.41645,9.41645,0,0,0,3.463,1.86795V11.8848c-1.83681.93109-5.34788,3.15359-6.97941,4.09a1.26,1.26,0,0,1,.6428,1.14494v3.49872c0,.43154-.112.777-1.16268,1.50986a6.10739,6.10739,0,0,1,3.7215,2.677A50.93709,50.93709,0,0,1,84.484,21.04538c.12047,2.12987,1.17667,1.81331,2.272,3.64329,1.39055-1.9651,2.50633-2.41475,3.15579-3.53053A3.33306,3.33306,0,0,1,88.433,22.03518Zm-7.78637-1.41675V15.68751a1.34559,1.34559,0,0,1,.62618-1.33129c1.05567-.74882,2.3981-1.62223,3.19906-2.09245v8.27812a22.05205,22.05205,0,0,1-1.98756,1.62379A8.43831,8.43831,0,0,1,80.64667,20.61843Z"/><path class="cls-1" d="M43.85676,23.2648c0-5.52659.74914-7.79584-2.86018-9.48264l.08737-.06808c1.537-1.20663,2.981-2.28985,2.981-3.43061,0-2.80817-2.73114-3.6325-2.88935-4.89609L37.79893,8.48661a2.29589,2.29589,0,0,0-.95131-1.82075,3.826,3.826,0,0,1-.84089-1.0516A31.53752,31.53752,0,0,1,33.44628,8.2684c1.092-.27889,1.86478.92957,1.86478,1.89017V20.61843c0,.43154.099,1.31778-1.16267,1.50986,1.28013.10592,2.4183,1.93057,2.4183,2.677,0-.74644,1.13828-2.57109,2.41838-2.677-1.26172-.19208-1.16264-1.07832-1.16264-1.50986v-4.444c.36605-.26465.87431-.63855,1.45587-1.07558a4.30344,4.30344,0,0,1,2.21783,4.09833c0,3.66789-.587,7.73135,4.55886,9.21348C43.98166,27.22831,43.85676,24.747,43.85676,23.2648Zm-3.72205-9.40916c-.66436.55436-1.89515,1.43071-2.31228,1.72519V9.17838A18.79176,18.79176,0,0,1,39.3853,7.81879c1.384,1.199,2.17328,2.20449,2.17328,3.389A2.999,2.999,0,0,1,40.13471,13.85564Z"/><path class="cls-1" d="M73.84232,1.36951c-.90259,1.47805-.239,2.00833-1.58032,4.57812,2.13843-1.36382,2.40763-2.97893,3.81167-3.19578A4.32674,4.32674,0,0,1,73.84232,1.36951Z"/><path class="cls-1" d="M18.86415,19.93413V5.7704c0-3.006.74941-4.7046,2.58961-4.7046A1.36486,1.36486,0,0,0,20.86256,0c-.51628.57454-2.75616.866-3.75536.866S13.86811.57454,13.35187,0a1.36483,1.36483,0,0,0-.5912,1.0658c1.8402,0,2.58961,1.69865,2.58961,4.7046v5.837H6.10345V5.7704c0-3.006.74941-4.7046,2.58961-4.7046A1.36486,1.36486,0,0,0,8.10186,0C7.58562.57454,5.34574.866,4.34653.866S1.10745.57454.59117,0A1.36491,1.36491,0,0,0,0,1.0658c1.8402,0,2.58958,1.69865,2.58958,4.7046V19.93413c0,3.414-.63281,4.72748-2.29814,4.72748A1.60138,1.60138,0,0,0,.90966,25.8107a8.06384,8.06384,0,0,1,3.43687-.78062,8.06343,8.06343,0,0,1,3.43683.78062,1.60134,1.60134,0,0,0,.61827-1.14909c-1.66534,0-2.29818-1.31353-2.29818-4.72748V14.23865h9.24683v5.69548c0,3.414-.63284,4.72748-2.29818,4.72748a1.6013,1.6013,0,0,0,.61827,1.14909,5.14829,5.14829,0,0,1,1.27263-.47924c2.80952-.70939,4.02524,3.03346,6.91877,3.03346C18.98486,26.51225,18.86415,23.34808,18.86415,19.93413Z"/></g></g></svg>